<svg xmlns="http://www.w3.org/2000/svg" xmlns:xlink="http://www.w3.org/1999/xlink" width="415.334" height="50.548" viewBox="0 0 415.334 50.548">
  <defs>
    <clipPath id="clip-path">
      <rect id="Rectángulo_12" data-name="Rectángulo 12" width="415.334" height="50.548" fill="none"/>
    </clipPath>
  </defs>
  <g id="LOGO" transform="translate(0 0)">
    <g id="Grupo_4" data-name="Grupo 4" transform="translate(0 0)" clip-path="url(#clip-path)">
      <path id="Trazado_1" data-name="Trazado 1" d="M283.846,24.338c0-6.9-6.483-8.384-12.132-9.633-3.807-.833-4.818-1.606-4.818-3.034,0-1.011.892-2.5,4.461-2.5a45.485,45.485,0,0,1,10.7,1.428l1.368-6.183A51.07,51.07,0,0,0,270.939,2.99c-7.195,0-11.772,2.555-11.772,8.92,0,6.719,5.113,8.92,11.832,10.05,3.569.714,5.115,1.428,5.115,2.915,0,1.071-1.071,2.855-4.875,2.855A47.98,47.98,0,0,1,260,26.361l-1.425,6.127a60.956,60.956,0,0,0,13.559,1.425c7.195,0,11.715-3.034,11.715-9.574m-42.462,9.574c10.466,0,14.392-6.064,14.392-15.462,0-9.336-3.926-15.46-14.392-15.46s-14.451,6.124-14.451,15.46c0,9.4,3.985,15.462,14.451,15.462m0-24.5c4.877,0,6.243,3.569,6.243,9.039,0,5.532-1.365,9.1-6.243,9.1s-6.245-3.569-6.245-9.1c0-5.47,1.368-9.039,6.245-9.039m-25.631,3.152A25.215,25.215,0,0,1,226.16,10.3V2.99a12.756,12.756,0,0,0-10.288,5.351h-.119V3.582h-7.732V33.317h7.732ZM195.235,25.231c-1.487.952-3.747,2.32-6.243,2.32-3.152,0-4.758-1.963-4.758-5.353V3.582H176.5v20.4c0,6.067,2.974,9.931,8.92,9.931a13.085,13.085,0,0,0,9.693-4.458h.119v3.864h7.733V3.582h-7.733Zm-48.407,6.778c-3.271,1.606-4.64,3.509-4.64,6.067,0,5.294,3.985,7.73,12.786,7.73,12.134,0,17.842-3.269,17.842-10.823,0-4.7-3.034-7.016-9.1-7.433l-10.112-.714c-1.96-.119-2.02-1.665-1.484-3.034a8,8,0,0,1,.833-1.309,12.329,12.329,0,0,0,3.8.595c7.078,0,12.25-3.093,12.25-9.99a6.984,6.984,0,0,0-1.722-4.877h4.756V3.582h-11a15.516,15.516,0,0,0-4.283-.592c-7.611,0-12.548,3.269-12.548,10.109a9.006,9.006,0,0,0,4.818,8.325v.119c-3.034,1.606-4.521,4.045-4.521,6.245a4.5,4.5,0,0,0,2.32,4.1Zm9.931-13.975c-3.212,0-5.291-1.606-5.291-4.934s1.96-5.056,5.291-5.056c3.093,0,5.175,1.725,5.175,5.056s-2.082,4.934-5.175,4.934m-8.206,18.734c0-1.844.892-2.617,2.022-3.688l10.407.595c2.617.178,3.628,1.368,3.628,2.736,0,3.034-4.1,4.342-8.387,4.342-4.1,0-7.67-.892-7.67-3.985m-22.3-27.832c3.626,0,4.994,1.725,5.232,3.985a10.3,10.3,0,0,1-.119,2.32H119.829c.3-3.807,2.141-6.3,6.424-6.3m12.726,11.18a29.292,29.292,0,0,0,.238-7.492c-.595-5.175-3.569-9.633-12.488-9.633-11.3,0-15.343,6.124-15.343,15.46,0,9.4,4.042,15.462,15.462,15.462a39.116,39.116,0,0,0,11.3-1.425l-.892-6.127a32.316,32.316,0,0,1-9.279,1.19c-5.47,0-7.968-2.974-8.146-7.435Zm-30.806,4.223c0-6.9-6.481-8.384-12.132-9.633-3.807-.833-4.818-1.606-4.818-3.034,0-1.011.892-2.5,4.461-2.5a45.454,45.454,0,0,1,10.7,1.428l1.368-6.183A51.063,51.063,0,0,0,95.268,2.99c-7.195,0-11.775,2.555-11.775,8.92,0,6.719,5.115,8.92,11.834,10.05,3.569.714,5.115,1.428,5.115,2.915,0,1.071-1.071,2.855-4.877,2.855a47.947,47.947,0,0,1-11.239-1.368L82.9,32.487a60.973,60.973,0,0,0,13.559,1.425c7.195,0,11.715-3.034,11.715-9.574" transform="translate(131.488 4.743)" fill="#a4c422"/>
      <path id="Trazado_2" data-name="Trazado 2" d="M198.032,13.678c3.628,0,5,1.722,5.234,3.983a10.3,10.3,0,0,1-.119,2.32H191.608c.3-3.807,2.141-6.3,6.424-6.3m12.726,11.18A29.314,29.314,0,0,0,211,17.363c-.595-5.172-3.569-9.633-12.488-9.633-11.3,0-15.343,6.127-15.343,15.462,0,9.4,4.045,15.462,15.462,15.462a39.02,39.02,0,0,0,11.3-1.428l-.892-6.127a32.289,32.289,0,0,1-9.276,1.19c-5.472,0-7.97-2.971-8.149-7.433Zm-44.6,4.7c0,6.3,2.617,9.1,9.4,9.1a35.362,35.362,0,0,0,6.067-.535l-.654-5.948a13.03,13.03,0,0,1-2.736.3c-3.152,0-4.34-1.487-4.34-4.283V13.856h7.433V8.325h-7.433V0h-6.781l-.952,8.325-3.985.476v5.056h3.985Zm-6.54-.473c0-6.9-6.483-8.387-12.134-9.636-3.8-.833-4.815-1.606-4.815-3.031,0-1.014.892-2.5,4.461-2.5a45.587,45.587,0,0,1,10.7,1.425L159.2,9.157A51.19,51.19,0,0,0,146.711,7.73c-7.2,0-11.777,2.558-11.777,8.92,0,6.721,5.115,8.922,11.837,10.052,3.566.714,5.113,1.425,5.113,2.912,0,1.071-1.071,2.855-4.875,2.855A47.948,47.948,0,0,1,135.769,31.1l-1.43,6.127A60.828,60.828,0,0,0,147.9,38.655c7.2,0,11.718-3.034,11.718-9.574m-41.629-15.4c3.626,0,5,1.722,5.234,3.983a10.3,10.3,0,0,1-.119,2.32H111.563c.3-3.807,2.141-6.3,6.424-6.3m12.726,11.18a29.314,29.314,0,0,0,.238-7.495c-.595-5.172-3.569-9.633-12.488-9.633-11.3,0-15.343,6.127-15.343,15.462,0,9.4,4.045,15.462,15.462,15.462a39.031,39.031,0,0,0,11.3-1.428l-.892-6.127a32.316,32.316,0,0,1-9.279,1.19c-5.47,0-7.968-2.971-8.146-7.433Zm-44.6,4.7c0,6.3,2.615,9.1,9.4,9.1a35.356,35.356,0,0,0,6.064-.535l-.654-5.948a13.031,13.031,0,0,1-2.736.3c-3.152,0-4.342-1.487-4.342-4.283V13.856h7.435V8.325H93.84V0H87.064l-.952,8.325L82.128,8.8v5.056h3.985Zm-21.229,9.1c10.463,0,14.389-6.067,14.389-15.462,0-9.336-3.926-15.462-14.389-15.462S50.429,13.856,50.429,23.192c0,9.4,3.988,15.462,14.454,15.462m0-24.5c4.872,0,6.243,3.566,6.243,9.039,0,5.529-1.371,9.1-6.243,9.1s-6.245-3.569-6.245-9.1c0-5.472,1.365-9.039,6.245-9.039M39.25,17.3a25.215,25.215,0,0,1,10.407-2.26V7.73a12.758,12.758,0,0,0-10.285,5.351H39.25V8.325H31.52V38.06h7.73ZM18.912,23.192c0,5.053-1.252,9.1-5.829,9.1a8.646,8.646,0,0,1-5.351-1.9V16a9.044,9.044,0,0,1,5.351-1.841c4.577,0,5.829,3.983,5.829,9.039M7.733,8.325H0V49.954H7.733V35.324h.116a10.959,10.959,0,0,0,7.914,3.331c8.322,0,11.3-6.959,11.3-15.462,0-8.444-2.5-15.462-10.826-15.462A11.85,11.85,0,0,0,7.849,11.3H7.733Z" transform="translate(0 0)" fill="#00254d"/>
    </g>
  </g>
</svg>
